<?xml version="1.0" encoding="iso-8859-1"?>
<!-- Generator: Adobe Illustrator 19.0.0, SVG Export Plug-In . SVG Version: 6.00 Build 0)  -->
<svg version="1.1" id="Capa_1" xmlns="http://www.w3.org/2000/svg" xmlns:xlink="http://www.w3.org/1999/xlink" x="0px" y="0px"
	 viewBox="0 0 512.002 512.002" style="enable-background:new 0 0 512.002 512.002;" xml:space="preserve">
<path style="fill:#FDDB87;" d="M390.093,142.22c0,15.255-10.152,29.825-25.407,29.825v20.988H123.875v-23.197
	c-15.255,0-27.616-12.361-27.616-27.616c0-12.681,8.55-23.363,20.204-26.6c-0.917-2.751-1.425-5.689-1.425-8.749
	c0-15.255,12.361-27.616,27.616-27.616c0.276,0,0.542,0.011,0.806,0.022c-0.52-2.132-0.806-4.352-0.806-6.65
	c0-15.255,12.361-27.616,27.616-27.616c9.843,0,18.469,5.148,23.363,12.891c4.761-3.91,10.859-6.263,17.508-6.263
	c5.424,0,10.471,1.569,14.747,4.264c2.176-13.068,13.532-23.042,27.229-23.042c14.725,0,26.754,11.522,27.572,26.037
	c3.678-1.812,7.81-2.839,12.195-2.839c11.853,0,21.971,7.478,25.881,17.973c5.049-5.611,12.372-9.135,20.513-9.135
	c15.255,0,27.616,12.361,27.616,27.616c0,9.931-5.236,18.624-13.101,23.496c2.728-0.906,5.645-1.403,8.683-1.403
	C377.732,114.605,390.093,126.965,390.093,142.22z"/>
<path style="fill:#EFBA5B;" d="M159.441,193.034v-4.587c-15.255,0-27.616-12.361-27.616-27.616c0-9.557,4.856-17.98,12.238-22.934
	c4.024-2.701,6.549-7.128,6.541-11.974l-0.001-0.439c0-15.255,12.361-27.616,27.616-27.616c0.276,0-0.229-6.575,0.223-10.135
	c1.663-13.091,12.647-23.337,25.823-24.065c7.765-0.429,14.872,2.35,20.131,7.129c3.074,2.795,7.515,3.384,11.326,1.728
	c3.365-1.462,7.079-2.272,10.984-2.272c1.808,0,3.574,0.174,5.284,0.507c5.128,0.996,10.343-1.452,13.044-5.924
	c2.381-3.942,5.719-7.241,9.695-9.574c3.014-1.769,4.015-5.65,2.255-8.671c-4.784-8.209-13.678-13.728-23.867-13.728
	c-13.697,0-25.054,9.975-27.229,23.043c-4.275-2.695-9.323-4.264-14.747-4.264c-6.65,0-12.748,2.353-17.508,6.263
	c-5.156-8.158-14.456-13.435-24.954-12.846c-13.174,0.739-24.15,10.991-25.804,24.082c-0.448,3.554-0.192,6.946,0.586,10.139
	c-0.265-0.011-0.531-0.022-0.806-0.022c-15.255,0-27.616,12.361-27.616,27.616c0,3.059,0.509,5.998,1.425,8.749
	c-11.654,3.237-20.204,13.918-20.204,26.6c0,15.255,12.361,27.616,27.616,27.616v23.197h35.565V193.034z"/>
<path style="fill:#DDDBC7;" d="M400.034,195.287v14.316l-3.568,36.806L384.569,370.88l-0.188,0.265l-8.539,88.261
	c-0.994,11.168-10.339,19.729-21.552,19.729H148.045c-11.201,0-20.547-8.538-21.552-19.696l-8.716-88.106l-12.306-124.46
	l-3.689-37.271v-14.316c0-13.477,10.484-24.953,23.948-25.44c14.14-0.498,25.76,10.815,25.76,24.843
	c0-13.731,11.123-24.854,24.854-24.854s24.854,11.124,24.854,24.854c0-13.731,11.123-24.854,24.854-24.854
	s24.854,11.124,24.854,24.854c0-13.731,11.123-24.854,24.854-24.854s24.854,11.124,24.854,24.854
	c0-13.731,11.124-24.854,24.854-24.854c13.731,0,24.854,11.124,24.854,24.854c0-14.029,11.621-25.341,25.76-24.843
	C389.552,170.334,400.034,181.811,400.034,195.287z"/>
<path style="fill:#CEC9A7;" d="M268.169,422.669c-11.201,0-20.547-8.539-21.552-19.696l-8.716-88.106l-12.306-124.46l-2.024-20.447
	c-12.565,1.244-22.373,11.838-22.373,24.73c0-13.731-11.124-24.854-24.854-24.854c-13.73,0-24.854,11.123-24.854,24.854
	c0-14.028-11.621-25.341-25.76-24.843c-13.466,0.486-23.948,11.963-23.948,25.44v14.317l3.689,37.27l12.306,124.46l8.716,88.106
	c1.005,11.157,10.35,19.696,21.552,19.696h206.247c11.212,0,20.558-8.561,21.552-19.729l3.554-36.737H268.169z"/>
<path style="fill:#ED3124;" d="M354.292,479.135c11.212,0,20.558-8.561,21.552-19.729l8.539-88.261l0.188-0.265l11.897-124.471
	l3.568-36.806v-14.316c0-13.477-10.483-24.953-23.948-25.44c-14.139-0.497-25.76,10.815-25.76,24.843
	c0-1.79-18.745,284.444-18.745,284.444L354.292,479.135L354.292,479.135z"/>
<g>
	<path style="fill:#E00E0E;" d="M379.397,422.669h-44.115c-2.177,33.208-3.7,56.466-3.7,56.466h22.71
		c3.504,0,6.826-0.836,9.767-2.327c2.353-1.192,4.463-2.803,6.228-4.74c3.088-3.389,5.123-7.777,5.557-12.662L379.397,422.669z"/>
	<path style="fill:#E00E0E;" d="M168.001,479.135h42.011c0,0-8.813-286.356-8.813-284.444c0-13.731-11.124-24.854-24.854-24.854
		c-13.73,0-24.854,11.124-24.854,24.854C151.491,193.106,168.001,479.135,168.001,479.135z"/>
</g>
<path style="fill:#ED3124;" d="M284.107,479.688h-33.751c0,0,0.553-286.356,0.553-284.444c0-13.73,11.124-24.854,24.854-24.854
	s24.854,11.124,24.854,24.854C300.617,193.659,284.107,479.688,284.107,479.688z"/>
<path style="fill:#E00E0E;" d="M250.484,413.468c-0.068,35.208-0.119,61.609-0.127,65.667h33.782
	c0.213-3.697,1.497-25.928,3.262-56.466h-19.231C260.892,422.669,254.416,419.052,250.484,413.468z"/>
<path style="fill:#DDDDDD;" d="M437.592,262.892v92.259c0,8.075-6.55,14.625-14.625,14.625H265.81c-0.375,0-0.729-0.21-0.917-0.542
	l-6.473-19.685c-2.386-7.246-12.637-7.246-15.023,0l-6.473,19.685c-0.188,0.331-0.542,0.542-0.917,0.542H78.85
	c-8.075,0-14.625-6.55-14.625-14.625v-92.259c0-8.075,6.55-14.625,14.625-14.625h156.019c1.823,0,3.579,0.729,4.86,2.021
	l4.419,4.441c3.734,3.745,9.787,3.745,13.521,0l4.419-4.441c1.281-1.292,3.037-2.021,4.86-2.021h156.019
	C431.042,248.265,437.592,254.817,437.592,262.892z"/>
<path style="fill:#CCCBC6;" d="M250.908,262.891c0-1.916,0.379-3.741,1.049-5.418c-2.784,0.306-5.675-0.605-7.81-2.745l-4.419-4.441
	c-1.281-1.292-3.037-2.022-4.86-2.022H78.85c-8.075,0-14.625,6.55-14.625,14.625v92.259c0,8.075,6.55,14.625,14.625,14.625h157.156
	c0.375,0,0.729-0.209,0.917-0.542l6.473-19.685c1.193-3.623,4.352-5.435,7.511-5.435L250.908,262.891L250.908,262.891z"/>
<path style="fill:#128CA0;" d="M221.083,283.184v51.675c0,5.258-4.253,9.51-9.511,9.51H103.561c-5.258,0-9.51-4.253-9.51-9.51
	v-51.675c0-5.258,4.253-9.51,9.51-9.51h108.012C216.83,273.672,221.083,277.925,221.083,283.184z"/>
<path style="fill:#ED3124;" d="M407.767,283.184v51.675c0,5.258-4.253,9.51-9.511,9.51H290.245c-5.258,0-9.51-4.253-9.51-9.51
	v-51.675c0-5.258,4.253-9.51,9.51-9.51h108.012C403.514,273.672,407.767,277.925,407.767,283.184z"/>
<path style="fill:#00818E;" d="M211.572,273.672H103.561c-5.253,0-9.511,4.259-9.511,9.511v5.567h57.298
	c30.718,0,55.619,24.901,55.619,55.619l0,0h4.605c5.253,0,9.51-4.259,9.51-9.51v-51.675
	C221.083,277.931,216.825,273.672,211.572,273.672z"/>
<path style="fill:#E00E0E;" d="M398.256,273.672H290.245c-5.253,0-9.51,4.259-9.51,9.51v5.567h57.298
	c30.718,0,55.619,24.901,55.619,55.619l0,0h4.605c5.253,0,9.51-4.259,9.51-9.51v-51.675
	C407.767,277.931,403.509,273.672,398.256,273.672z"/>
<path style="fill:#FDDB87;" d="M481.295,421.694c12.814,0,23.197,10.383,23.197,23.197s-10.383,23.197-23.197,23.197
	c-2.861,0-5.6-0.542-8.13-1.492c-3.866,7.445-11.621,12.538-20.591,12.538c-12.814,0-23.197-10.383-23.197-23.197
	c0-4.617,1.37-8.904,3.689-12.527c-0.232-1.314-0.375-2.662-0.375-4.043c0-12.814,10.383-23.197,23.197-23.197
	c6.605,0,12.549,2.773,16.768,7.202C475.33,422.302,478.246,421.694,481.295,421.694z"/>
<path style="fill:#EFBA5B;" d="M459.522,456.52c0-4.617,1.37-8.904,3.689-12.527c-0.232-1.314-0.375-2.662-0.375-4.042
	c0-7.208,3.286-13.648,8.442-17.902c-4.091-3.648-9.472-5.877-15.39-5.877c-12.814,0-23.197,10.383-23.197,23.197
	c0,1.381,0.143,2.729,0.375,4.043c-2.32,3.623-3.689,7.91-3.689,12.527c0,12.814,10.383,23.197,23.197,23.197
	c5.599,0,10.725-1.985,14.727-5.288C462.531,469.599,459.522,463.413,459.522,456.52z"/>
<path style="fill:#FDDB87;" d="M392.418,439.451c9.061,9.061,9.061,23.745,0,32.806s-23.745,9.061-32.806,0
	c-2.023-2.023-3.577-4.343-4.694-6.803c-7.999,2.531-17.083,0.649-23.425-5.694c-9.061-9.061-9.061-23.745,0-32.806
	c3.265-3.265,7.264-5.327,11.467-6.249c0.766-1.093,1.617-2.148,2.593-3.124c9.061-9.061,23.745-9.061,32.806,0
	c4.671,4.671,6.913,10.834,6.764,16.95C387.771,435.663,390.262,437.296,392.418,439.451z"/>
<path style="fill:#EFBA5B;" d="M359.63,444.935c3.265-3.265,7.264-5.327,11.467-6.249c0.766-1.093,1.617-2.148,2.593-3.124
	c3.141-3.142,6.965-5.168,10.99-6.131c-0.857-4.341-2.955-8.484-6.322-11.851c-9.061-9.061-23.745-9.061-32.806,0
	c-0.976,0.976-1.828,2.031-2.593,3.124c-4.203,0.922-8.202,2.983-11.467,6.249c-9.061,9.061-9.061,23.745,0,32.806
	c5.917,5.916,14.218,7.949,21.799,6.141C351.824,458.553,353.932,450.633,359.63,444.935z"/>
<path style="fill:#FDDB87;" d="M82.624,439.368c0,4.617-1.37,8.904-3.689,12.527c0.232,1.314,0.375,2.662,0.375,4.043
	c0,12.814-10.383,23.197-23.197,23.197c-6.605,0-12.549-2.773-16.768-7.202c-2.673,1.071-5.589,1.679-8.638,1.679
	c-12.814,0-23.197-10.383-23.197-23.197c0-12.814,10.383-23.197,23.197-23.197c2.861,0,5.6,0.542,8.13,1.492
	c3.866-7.445,11.621-12.538,20.591-12.538C72.24,416.171,82.624,426.554,82.624,439.368z"/>
<path style="fill:#EFBA5B;" d="M37.344,465.567c0-12.814,10.383-23.197,23.197-23.197c2.861,0,5.6,0.542,8.13,1.492
	c2.711-5.221,7.339-9.276,12.952-11.238c-2.889-9.521-11.731-16.451-22.198-16.451c-8.97,0-16.724,5.093-20.591,12.538
	c-2.53-0.95-5.269-1.492-8.13-1.492c-12.814,0-23.197,10.383-23.197,23.197c0,12.814,10.383,23.197,23.197,23.197
	c2.672,0,5.243-0.468,7.636-1.303C37.695,470.174,37.344,467.912,37.344,465.567z"/>
<path d="M211.572,266.164H103.561c-9.384,0-17.019,7.635-17.019,17.02v51.675c0,9.384,7.634,17.019,17.019,17.019h108.012
	c9.384,0,17.019-7.634,17.019-17.019v-51.675C228.591,273.8,220.957,266.164,211.572,266.164z M213.574,334.859
	c0,1.104-0.898,2.002-2.002,2.002H103.561c-1.104,0-2.002-0.898-2.002-2.002v-51.675c0-1.105,0.898-2.003,2.002-2.003h108.012
	c1.104,0,2.002,0.898,2.002,2.003V334.859z"/>
<path d="M290.245,351.877h108.012c9.384,0,17.019-7.634,17.019-17.019v-51.675c0-9.384-7.634-17.02-17.019-17.02h-23.544
	c-4.147,0-7.508,3.361-7.508,7.508c0,4.148,3.362,7.508,7.508,7.508h23.544c1.104,0,2.002,0.898,2.002,2.003v51.675
	c0,1.104-0.898,2.002-2.002,2.002H290.245c-1.104,0-2.002-0.898-2.002-2.002v-51.675c0-1.105,0.898-2.003,2.002-2.003h48.699
	c4.147,0,7.508-3.361,7.508-7.508c0-4.148-3.362-7.508-7.508-7.508h-48.699c-9.384,0-17.019,7.635-17.019,17.02v51.675
	C273.225,344.243,280.86,351.877,290.245,351.877z"/>
<path d="M169.454,122.135c2.444-0.095,4.915,0.246,7.257,1.038c0.785,0.266,1.597,0.396,2.405,0.396c1.566,0,3.115-0.49,4.415-1.436
	c1.97-1.433,3.123-3.731,3.093-6.166l-0.008-0.311c0.015-5.74,2.497-11.214,6.813-15.025c2.857-2.523,3.372-6.785,1.195-9.915
	c-0.169-0.244-0.333-0.493-0.493-0.745c-1.149-1.821-3.025-3.061-5.152-3.404c-2.125-0.344-4.297,0.243-5.962,1.61
	c-3.632,2.982-8.04,4.558-12.748,4.558c-0.111,0-0.221-0.005-0.331-0.009l-0.262-0.009c-2.34-0.062-4.588,0.965-6.062,2.791
	c-1.474,1.827-2.007,4.237-1.445,6.516c0.392,1.589,0.592,3.22,0.592,4.847c0,1.909-0.273,3.811-0.812,5.653
	c-0.678,2.319-0.198,4.823,1.289,6.728S167.044,122.239,169.454,122.135z"/>
<path d="M259.226,131.728c1.332,2.171,3.674,3.52,6.221,3.58c0.06,0.001,0.12,0.002,0.179,0.002c2.48,0,4.805-1.226,6.205-3.282
	c3.757-5.517,9.976-8.811,16.635-8.811c2.518,0,4.982,0.466,7.324,1.382c2.199,0.862,4.676,0.638,6.685-0.605
	c2.009-1.241,3.317-3.358,3.53-5.71c0.165-1.821,0.577-3.608,1.225-5.309c1.007-2.644,0.443-5.628-1.458-7.722
	c-1.901-2.094-4.818-2.939-7.547-2.192c-1.747,0.48-3.545,0.724-5.342,0.724c-3.931,0-7.741-1.138-11.018-3.292
	c-2.04-1.341-4.606-1.606-6.88-0.71c-2.272,0.897-3.965,2.843-4.541,5.217c-1.374,5.67-5.153,10.458-10.369,13.139
	c-2.013,1.034-3.453,2.922-3.917,5.138c-0.465,2.215,0.095,4.523,1.524,6.278C258.246,130.246,258.765,130.978,259.226,131.728z"/>
<path d="M481.295,414.186c-2.298,0-4.572,0.257-6.801,0.768c-5.316-4.084-11.772-6.291-18.604-6.291
	c-16.932,0-30.706,13.775-30.706,30.706c0,0.828,0.037,1.661,0.111,2.509c-2.247,4.355-3.425,9.162-3.425,14.061
	c0,16.931,13.774,30.706,30.706,30.706c9.42,0,18.132-4.266,23.895-11.434c1.595,0.258,3.207,0.387,4.825,0.387
	c16.932,0,30.706-13.775,30.706-30.706S498.226,414.186,481.295,414.186z M481.295,460.581c-1.855,0-3.702-0.34-5.492-1.012
	c-3.558-1.337-7.55,0.197-9.302,3.569c-2.719,5.236-8.056,8.488-13.927,8.488c-8.651,0-15.689-7.038-15.689-15.689
	c0-2.987,0.866-5.918,2.504-8.478c1.017-1.587,1.399-3.498,1.071-5.354c-0.176-0.997-0.261-1.893-0.261-2.738
	c0-8.651,7.039-15.689,15.689-15.689c4.315,0,8.339,1.731,11.332,4.872c2.119,2.224,5.38,2.933,8.23,1.791
	c1.886-0.757,3.852-1.14,5.844-1.14c8.652,0,15.689,7.038,15.689,15.689S489.946,460.581,481.295,460.581z"/>
<path d="M392.375,429.875c-0.611-4.663-2.272-9.07-4.877-12.953l3.834-39.638h31.635c12.204,0,22.133-9.929,22.133-22.133v-92.259
	c0-5.286-1.863-10.145-4.966-13.955l-32.524-55.29c-0.039-0.066-0.079-0.131-0.119-0.195c-0.659-11.773-7.593-22.084-17.431-27.369
	c4.763-6.609,7.54-15.056,7.54-23.859c0-16.504-11.442-30.387-26.809-34.13c2.347-4.751,3.612-10.055,3.612-15.579
	c0-19.368-15.756-35.125-35.124-35.125c-6.528,0-12.871,1.827-18.339,5.175c-6.537-8.641-16.897-14.011-28.056-14.011
	c-2.207,0-4.379,0.2-6.507,0.601c-4.727-13.895-17.899-23.797-33.259-23.797c-13.994,0-26.227,8.124-31.85,20.268
	c-3.268-0.983-6.675-1.49-10.126-1.49c-5.541,0-10.991,1.322-15.884,3.801c-6.525-6.627-15.443-10.428-24.987-10.428
	c-19.343,0-35.084,15.717-35.125,35.051c-15.772,3.448-27.615,17.525-27.615,34.317c0,1.386,0.082,2.765,0.245,4.136
	c-11.474,5.934-19.024,17.928-19.024,31.213c0,12.179,6.231,22.93,15.672,29.233c-5.819,5.645-9.618,13.434-10.097,21.995
	c-0.041,0.065-0.081,0.13-0.12,0.196l-32.522,55.289c-3.104,3.811-4.968,8.671-4.968,13.957v92.259
	c0,12.204,9.929,22.133,22.133,22.133h31.973l8.194,82.829c1.363,15.125,13.843,26.53,29.03,26.53h206.247
	c3.752,0,7.388-0.7,10.83-2.082c3.501,1.322,7.197,1.984,10.894,1.984c7.863,0,15.725-2.992,21.712-8.979
	c5.8-5.8,8.995-13.512,8.995-21.713c0-8.2-3.195-15.912-8.995-21.712C396.102,432.517,394.312,431.09,392.375,429.875z
	 M373.511,405.535c-9.674-3.914-20.954-2.705-29.637,3.628l2.099-31.879h30.27L373.511,405.535z M298.572,471.627l3.263-94.343
	h29.09l-2.804,42.585c-0.669,0.563-1.315,1.154-1.936,1.776c-11.639,11.639-11.962,30.372-0.973,42.407l-0.499,7.575H298.572z
	 M258.417,471.627v-64.546c0-4.148-3.362-7.508-7.508-7.508c-4.147,0-7.508,3.361-7.508,7.508v64.546h-25.13l-3.263-94.343h20.999
	c3.076,0,5.93-1.667,7.45-4.35c0.244-0.431,0.444-0.885,0.6-1.355l6.473-19.682c0.065-0.2,0.09-0.274,0.379-0.274
	c0.289,0,0.313,0.074,0.378,0.271l6.473,19.685c0.154,0.471,0.355,0.924,0.6,1.355c1.52,2.683,4.374,4.35,7.449,4.35h20.999
	l-3.263,94.343L258.417,471.627L258.417,471.627z M177.104,471.627l-6.213-94.343h29.09l3.263,94.343L177.104,471.627
	L177.104,471.627z M417.902,240.757h-13.344l1.888-19.475L417.902,240.757z M392.527,209.241l-3.055,31.517h-34.507l3.284-49.866
	c0.728-3.285,2.402-6.284,4.887-8.684c3.418-3.301,7.935-5.03,12.681-4.858c9.215,0.332,16.711,8.379,16.711,17.937L392.527,209.241
	L392.527,209.241z M306.555,240.757l1.565-45.255c0.006-0.182,0.006-0.363-0.001-0.543c0.003-0.089,0.005-0.179,0.005-0.269
	c0-9.564,7.782-17.346,17.346-17.346s17.346,7.782,17.346,17.346c0,0.336,0.022,0.667,0.065,0.991l-2.968,45.074h-33.358V240.757z
	 M266.948,240.757c-3.804,0-7.519,1.547-10.182,4.234l-4.414,4.436c-0.496,0.498-1.058,0.602-1.443,0.602
	c-0.384,0-0.947-0.104-1.439-0.597l-4.408-4.431c-2.674-2.697-6.389-4.244-10.193-4.244h-24.583l-1.583-45.773
	c0-0.007-0.001-0.014-0.001-0.021c0.003-0.09,0.005-0.181,0.005-0.271c0-9.564,7.781-17.346,17.346-17.346
	c9.565,0,17.346,7.782,17.346,17.346c0,0.092,0.002,0.184,0.006,0.276c-0.003,0.092-0.006,0.184-0.006,0.276v35.211
	c0,4.148,3.362,7.508,7.508,7.508c4.147,0,7.508-3.361,7.508-7.508v-35.211c0-0.092-0.002-0.184-0.006-0.276
	c0.003-0.092,0.006-0.184,0.006-0.276c0-9.564,7.782-17.346,17.346-17.346s17.346,7.782,17.346,17.346
	c0,0.091,0.002,0.181,0.005,0.271c0,0.007-0.001,0.014-0.001,0.021l-1.583,45.773H266.948z M112.411,240.757l-3.12-31.525v-13.945
	c0-9.557,7.496-17.604,16.704-17.937c4.76-0.149,9.27,1.559,12.688,4.858c2.486,2.4,4.16,5.399,4.887,8.684l3.284,49.866
	L112.411,240.757L112.411,240.757z M161.902,240.757l-2.968-45.074c0.043-0.324,0.065-0.656,0.065-0.992
	c0-9.564,7.782-17.346,17.346-17.346s17.346,7.782,17.346,17.346c0,0.09,0.002,0.18,0.005,0.269
	c-0.007,0.179-0.007,0.36-0.001,0.543l1.565,45.255L161.902,240.757L161.902,240.757z M123.875,162.328
	c-11.087,0-20.107-9.021-20.107-20.108c0-8.998,6.047-16.961,14.704-19.365c1.982-0.551,3.652-1.891,4.619-3.707
	c0.967-1.816,1.146-3.949,0.496-5.902c-0.69-2.068-1.04-4.214-1.04-6.374c0-11.087,9.02-20.108,20.107-20.108
	c0.162,0,0.318,0.008,0.475,0.016c2.357,0.099,4.631-0.908,6.132-2.733c1.501-1.824,2.054-4.249,1.496-6.544
	c-0.394-1.617-0.594-3.257-0.594-4.873c0-11.087,9.021-20.108,20.108-20.108c6.938,0,13.299,3.512,17.016,9.394
	c1.15,1.82,3.026,3.059,5.153,3.401c2.127,0.346,4.297-0.243,5.961-1.61c3.63-2.982,8.037-4.558,12.743-4.558
	c3.803,0,7.518,1.074,10.742,3.107c2.126,1.34,4.782,1.528,7.077,0.5s3.921-3.137,4.334-5.616
	c1.618-9.717,9.955-16.768,19.824-16.768c10.659,0,19.477,8.323,20.075,18.951c0.142,2.515,1.536,4.791,3.711,6.062
	c2.174,1.27,4.842,1.364,7.103,0.252c2.784-1.372,5.771-2.066,8.878-2.066c8.356,0,15.929,5.259,18.847,13.086
	c0.917,2.461,3.053,4.264,5.632,4.754c2.583,0.492,5.229-0.402,6.985-2.356c3.801-4.226,9.243-6.649,14.931-6.649
	c11.087,0,20.107,9.021,20.107,20.108c0,7.013-3.569,13.411-9.547,17.113c-3.237,2.005-4.461,6.115-2.847,9.564
	c1.613,3.447,5.549,5.144,9.166,3.944c2.041-0.678,4.167-1.021,6.318-1.021c11.087,0,20.107,9.021,20.107,20.108
	c0,8.512-4.087,16.614-10.186,20.221c-7.386,0.626-14.276,3.732-19.695,8.963c-0.849,0.819-1.646,1.676-2.392,2.566
	c-5.942-7.112-14.872-11.643-24.841-11.643c-9.977,0-18.914,4.537-24.854,11.658c-5.942-7.12-14.877-11.658-24.854-11.658
	s-18.914,4.537-24.854,11.658c-5.942-7.12-14.877-11.658-24.854-11.658c-9.977,0-18.913,4.537-24.854,11.658
	c-5.942-7.12-14.877-11.658-24.854-11.658c-9.969,0-18.901,4.531-24.841,11.643c-0.746-0.891-1.544-1.747-2.392-2.566
	c-6.376-6.154-14.778-9.369-23.652-9.061c-0.239,0.009-0.479,0.021-0.717,0.035C124.458,162.346,124.168,162.328,123.875,162.328z
	 M95.39,221.249l1.931,19.508H83.915L95.39,221.249z M71.733,355.151v-92.259c0-1.372,0.39-2.654,1.066-3.742
	c0.407-0.4,0.775-0.854,1.092-1.357c1.282-1.247,3.032-2.017,4.959-2.017h155.747l4.234,4.255c3.225,3.235,7.514,5.016,12.077,5.016
	c4.563,0,8.853-1.781,12.082-5.022l4.23-4.25h155.747c1.927,0,3.677,0.771,4.96,2.019c0.316,0.503,0.683,0.955,1.09,1.355
	c0.676,1.088,1.067,2.371,1.067,3.743v92.259c0,3.924-3.192,7.117-7.117,7.117H270.506c-0.061-0.001,0.06-0.001,0,0l0,0
	l-4.954-15.067c-2.119-6.436-7.867-10.595-14.643-10.595s-12.524,4.159-14.644,10.598l-4.953,15.064H78.85
	C74.925,362.268,71.733,359.075,71.733,355.151z M133.964,458.7l-8.054-81.416h29.932l6.213,94.343h-14.011
	C140.681,471.627,134.632,466.098,133.964,458.7z M387.109,466.949c-6.117,6.117-16.071,6.117-22.188,0
	c-1.311-1.311-2.378-2.857-3.166-4.597c-1.245-2.744-3.96-4.406-6.837-4.406c-0.752,0-1.516,0.113-2.266,0.351
	c-5.627,1.781-11.699,0.306-15.85-3.845c-6.117-6.117-6.117-16.071,0-22.188c2.111-2.111,4.797-3.572,7.766-4.224
	c1.84-0.403,3.461-1.484,4.541-3.026c0.582-0.831,1.155-1.525,1.752-2.122c6.118-6.117,16.072-6.118,22.188-0.001
	c3.05,3.051,4.672,7.121,4.568,11.46c-0.074,3.07,1.73,5.877,4.555,7.086c1.868,0.799,3.529,1.917,4.937,3.326
	C393.226,450.878,393.226,460.831,387.109,466.949z"/>
<path d="M59.426,408.663c-9.42,0-18.132,4.266-23.895,11.434c-1.595-0.257-3.207-0.387-4.825-0.387
	C13.774,419.709,0,433.484,0,450.414s13.774,30.706,30.706,30.706c2.298,0,4.572-0.257,6.801-0.768
	c5.316,4.084,11.772,6.291,18.604,6.291c16.932,0,30.706-13.775,30.706-30.706c0-0.828-0.037-1.661-0.111-2.509
	c2.247-4.355,3.425-9.162,3.425-14.061C90.132,422.438,76.357,408.663,59.426,408.663z M72.611,447.846
	c-1.017,1.587-1.399,3.498-1.071,5.354c0.176,0.997,0.261,1.893,0.261,2.738c0,8.651-7.039,15.689-15.689,15.689
	c-4.315,0-8.339-1.731-11.332-4.872c-1.446-1.518-3.422-2.33-5.438-2.33c-0.939,0-1.886,0.176-2.792,0.539
	c-1.886,0.757-3.852,1.14-5.844,1.14c-8.651,0-15.689-7.038-15.689-15.689c0-8.651,7.038-15.689,15.689-15.689
	c1.855,0,3.701,0.34,5.49,1.012c3.555,1.336,7.552-0.195,9.303-3.568c2.719-5.236,8.056-8.489,13.927-8.489
	c8.651,0,15.689,7.038,15.689,15.689C75.115,442.356,74.248,445.287,72.611,447.846z"/>
<g>
</g>
<g>
</g>
<g>
</g>
<g>
</g>
<g>
</g>
<g>
</g>
<g>
</g>
<g>
</g>
<g>
</g>
<g>
</g>
<g>
</g>
<g>
</g>
<g>
</g>
<g>
</g>
<g>
</g>
</svg>
